<?xml version="1.0" standalone="no"?>
<!DOCTYPE svg PUBLIC "-//W3C//DTD SVG 20010904//EN"
 "http://www.w3.org/TR/2001/REC-SVG-20010904/DTD/svg10.dtd">
<svg version="1.0" xmlns="http://www.w3.org/2000/svg"
 width="16.000000pt" height="16.000000pt" viewBox="0 0 980.000000 900.000000"
 preserveAspectRatio="xMidYMid meet">

<g transform="translate(0.000000,900.000000) scale(0.100000,-0.100000)"
   style="enable-background:new 0 0 451.847 451.847;"
   fill="currentColor" stroke="none">
<path d="M4145 7042 c-412 -412 -1514 -1509 -2447 -2438 l-1697 -1689 850
-854 c467 -470 851 -852 853 -850 37 35 1448 1440 2204 2193 l992 990 998
-995 c778 -776 2170 -2162 2198 -2188 2 -3 386 380 853 850 l850 854 -667 665
c-1319 1316 -4223 4205 -4230 4207 -4 2 -344 -334 -757 -745z"/>
</g>
</svg>
