<svg xmlns="http://www.w3.org/2000/svg" width="133" height="133" viewBox="0 0 133 133">
    <g fill="none" fill-rule="evenodd">
        <g>
            <ellipse cx="66.825" cy="66" fill="#F0F0F0" rx="66.057" ry="66"/>
            <rect width="125.832" height="97.339" x="3.259" y="17.971" fill="#FFF" stroke="#000" rx="3"/>
            <path stroke="#000" stroke-linecap="square" stroke-width="2"
                  d="M25.178 33.131v56.937M36.921 33.131v56.937M42.08 33.131v56.937M60.098 33.131v56.937M67.869 33.131v56.937M83.412 33.131v56.937M88.896 33.131v56.937M94.887 33.131v56.937M109.83 33.131v56.937"/>
            <path fill="#030303" fill-rule="nonzero"
                  d="M37.256 105.764v-3.828l-.7.155c-.077.015-.155-.031-.162-.109l-.047-.388c-.008-.086.008-.117.078-.17l.995-.84c.077-.07.163-.1.272-.1h.404c.085 0 .147.07.147.147v5.133c0 .085-.062.155-.147.155h-.684a.151.151 0 0 1-.156-.155zm4.99.232c-1.275 0-2.013-1.048-2.013-2.795 0-1.755.738-2.795 2.013-2.795 1.282 0 2.02 1.04 2.02 2.795 0 1.747-.738 2.795-2.02 2.795zm0-.916c.621 0 1.01-.69 1.01-1.879 0-1.188-.389-1.871-1.01-1.871-.614 0-1.003.683-1.003 1.871s.389 1.88 1.003 1.88zm4.282.396c-.04-.093-.008-.178.147-.233.373-.116 1.516-.613 1.757-1.49a2.156 2.156 0 0 1-.91.225c-.8 0-1.632-.598-1.632-1.74 0-1.01.824-1.832 1.811-1.832 1.251 0 1.904 1.01 1.904 2.205 0 2.337-1.982 3.23-2.665 3.448-.117.038-.195-.008-.226-.11l-.186-.473zm1.189-2.283c.528 0 .839-.411.924-.698 0-.544-.287-1.188-.932-1.188-.505 0-.917.442-.917.947 0 .512.412.94.925.94zm3.52.598c0-2.337 1.982-3.222 2.666-3.447.116-.031.194.008.225.108l.187.474c.038.093.007.186-.148.233-.373.117-1.508.613-1.756 1.499.132-.086.536-.226.909-.226.8 0 1.632.59 1.632 1.732 0 1.01-.824 1.832-1.81 1.832-1.252 0-1.905-1.001-1.905-2.205zm1.896 1.313c.505 0 .917-.389.917-.956a.92.92 0 0 0-.924-.94c-.529 0-.84.412-.925.7 0 .551.287 1.196.932 1.196zm3.35-.342a.161.161 0 0 1-.156-.155v-.505c0-.109.031-.194.101-.272l2.752-3.339c.054-.062.1-.085.202-.085h.38c.086 0 .156.07.156.155v3.37h.637c.093 0 .155.062.155.14v.536a.156.156 0 0 1-.155.155h-.637l.008 1.002c0 .085-.07.155-.156.155h-.66a.161.161 0 0 1-.156-.155v-1.002h-2.471zm.917-.823v.015h1.585v-1.933h-.015l-1.57 1.918zm4.981 1.397c-.108-.124-.116-.178-.015-.271l.396-.396c.055-.047.132-.062.194-.008.226.186.552.45 1.034.45.544 0 .925-.442.925-.947 0-.49-.334-.893-.964-.893h-1.235c-.164 0-.25-.147-.25-.28v-2.36a.15.15 0 0 1 .156-.147h2.526c.085 0 .155.07.155.147v.544c0 .085-.07.155-.155.155h-1.78v1.064h.692c1.135 0 1.834.73 1.834 1.77 0 1.002-.832 1.832-1.935 1.832-.863 0-1.383-.419-1.578-.66zm6.544-.287v.016h1.71c.085 0 .155.07.155.147v.552c0 .085-.07.155-.155.155h-3.156c-.085 0-.147-.07-.147-.155v-.078c0-.086.039-.148.062-.179.544-.667 1.5-1.91 2.013-2.585.248-.303.404-.614.404-.886 0-.357-.272-.722-.847-.722-.381 0-.715.272-.894.466-.07.07-.155.07-.218 0l-.388-.38c-.047-.047-.062-.148-.008-.21 0 0 .63-.784 1.578-.784 1.15 0 1.787.73 1.787 1.592 0 .52-.225.838-.536 1.289-.334.481-.94 1.226-1.36 1.762zm4.165.427c-.038-.093-.007-.178.148-.233.373-.116 1.515-.613 1.756-1.49a2.156 2.156 0 0 1-.909.225c-.8 0-1.632-.598-1.632-1.74 0-1.01.824-1.832 1.81-1.832 1.252 0 1.905 1.01 1.905 2.205 0 2.337-1.982 3.23-2.666 3.448-.116.038-.194-.008-.225-.11l-.187-.473zm1.19-2.283c.528 0 .839-.411.924-.698 0-.544-.287-1.188-.932-1.188-.506 0-.917.442-.917.947 0 .512.411.94.924.94zm3.55 1.274c0-.699.522-1.134.972-1.336v-.03c-.38-.164-.823-.606-.823-1.228 0-.893.769-1.467 1.733-1.467 1.002 0 1.772.574 1.772 1.467 0 .606-.459 1.049-.824 1.22v.038c.482.202.971.645.971 1.336 0 .87-.738 1.53-1.92 1.53-1.142 0-1.88-.66-1.88-1.53zm1.905-1.802c.49-.116.723-.411.723-.753 0-.38-.296-.683-.746-.683-.42 0-.708.303-.708.683 0 .357.226.63.73.753zm-.84 1.779c0 .442.335.737.84.737.497 0 .831-.295.831-.737 0-.358-.295-.723-.831-.847-.536.124-.84.49-.84.847zm6.459 1.552c-1.275 0-2.013-1.048-2.013-2.795 0-1.755.738-2.795 2.013-2.795 1.282 0 2.02 1.04 2.02 2.795 0 1.747-.738 2.795-2.02 2.795zm0-.916c.621 0 1.01-.69 1.01-1.879 0-1.188-.389-1.871-1.01-1.871-.614 0-1.003.683-1.003 1.871s.389 1.88 1.003 1.88zm4.445.684v-3.828l-.7.155c-.077.015-.155-.031-.163-.109l-.046-.388c-.008-.086.007-.117.077-.17l.995-.84c.078-.07.163-.1.272-.1h.404c.086 0 .148.07.148.147v5.133c0 .085-.062.155-.148.155h-.684a.151.151 0 0 1-.155-.155zm4.99.232c-1.275 0-2.014-1.048-2.014-2.795 0-1.755.739-2.795 2.013-2.795 1.282 0 2.02 1.04 2.02 2.795 0 1.747-.738 2.795-2.02 2.795zm0-.916c.62 0 1.01-.69 1.01-1.879 0-1.188-.39-1.871-1.01-1.871-.615 0-1.003.683-1.003 1.871s.388 1.88 1.002 1.88z"/>
        </g>
    </g>
</svg>
