<svg xmlns="http://www.w3.org/2000/svg" viewBox="0 0 51.9 35.8"><path d="M25.9 21h20c.4 0 .8 0 .8.5s-.4.5-.8.5h-40c-.4 0-.9 0-.9-.5.1-.5.5-.5.9-.5h20zM40 6.2h2.6v13.6H40V6.2zM11.8 19.8H9.2V6.2h2.6v13.6zM14.8 19.8h-1.7V6.2h1.7v13.6zM29.2 19.8h-1.7V6.2h1.7v13.6zM38.6 19.8H37V6.2h1.6v13.6zM22.6 6.2h1.6v13.6h-1.6V6.2zM39.9 30.8v-7.6h2.6v7.6h-2.6zM9.2 30.7v-7.5h2.6v7.5H9.2zM3.9 3.6v6.3H2.6V2.3h7.6v1.2c-2 .1-4.1.1-6.3.1zM48.2 3.6h-6.3V2.3h7.6v7.6h-1.3V3.6zM3.9 33.4h6.3v1.3H2.6v-7.6h1.3v6.3zM48.2 27.1h1.3v7.6h-7.6v-1.3h6.4c-.1-2.1-.1-4.2-.1-6.3zM16.1 6.2h1v13.6h-1V6.2zM18.4 6.2h1v13.6h-1V6.2zM26.4 19.8h-1V6.2h1v13.6zM32.3 6.2h1v13.6h-1V6.2zM34.7 6.2h1v13.6h-1V6.2zM14.8 30.8h-1.7v-7.6h1.7v7.6zM24.2 30.8h-1.6v-7.6h1.6v7.6zM27.5 23.2h1.7v7.6h-1.7v-7.6zM37 30.7v-7.5h1.7v7.5H37zM25.4 23.2h1v7.7h-1v-7.7zM17.1 23.2v7.6h-1v-7.6h1zM19.4 30.8h-1v-7.6h1v7.6zM44.3 19.8h-.5V6.2h.5v13.6zM32.3 23.2h1v7.6h-1v-7.6zM34.6 23.2h1v7.6h-1v-7.6z"/><path d="M7.9 19.8h-.5V6.2h.5v13.6zM21.2 19.8h-.5V6.2h.5v13.6zM31 19.8h-.5V6.2h.5v13.6zM44.3 30.8h-.5v-7.6h.5v7.6zM7.4 23.2h.5v7.6h-.5v-7.6zM20.8 23.2h.5v7.6h-.5v-7.6zM31 30.8h-.5v-7.6h.5v7.6z"/></svg>