<?xml version="1.0" encoding="iso-8859-1"?>
<!-- Generator: Adobe Illustrator 16.0.0, SVG Export Plug-In . SVG Version: 6.00 Build 0)  -->
<!DOCTYPE svg PUBLIC "-//W3C//DTD SVG 1.1//EN" "http://www.w3.org/Graphics/SVG/1.1/DTD/svg11.dtd">
<svg version="1.1" id="Capa_1" xmlns="http://www.w3.org/2000/svg" xmlns:xlink="http://www.w3.org/1999/xlink" x="0px" y="0px"
	 width="20px" height="20px" viewBox="0 0 576 576" style="enable-background:new 0 0 576 576;" xml:space="preserve">
<g>
	<path d="M240,96c-25.333,0-49.791,3.975-72.693,11.814c-21.462,7.347-40.557,17.718-56.751,30.823
		C80.534,162.932,64,194.038,64,226.224c0,17.995,5.033,35.474,14.96,51.949c10.343,17.17,25.949,32.897,45.13,45.479
		c15.22,9.982,25.468,25.976,28.181,43.975c0.451,2.995,0.815,6.003,1.09,9.016c1.361-1.26,2.712-2.557,4.057-3.896
		c12.069-12.021,28.344-18.656,45.161-18.656c2.674,0,5.359,0.168,8.047,0.511c9.68,1.226,19.562,1.848,29.374,1.848
		c25.333,0,49.79-3.975,72.691-11.814c21.463-7.346,40.559-17.717,56.752-30.822C399.467,289.516,416,258.41,416,226.224
		s-16.533-63.291-46.557-87.587c-16.193-13.106-35.289-23.476-56.752-30.823C289.79,99.975,265.333,96,240,96z M240,32L240,32
		c132.549,0,240,86.957,240,194.224S372.549,420.448,240,420.448c-12.729,0-25.223-0.81-37.417-2.355
		C151.03,469.44,91.497,478.647,32,480v-12.567c32.126-15.677,58-44.231,58-76.866c0-4.553-0.356-9.023-1.015-13.396
		C34.706,341.562,0,287.175,0,226.224C0,118.957,107.452,32,240,32z M498,467.343c0,27.973,18.156,52.449,46,65.886V544
		c-51.562-1.159-98.893-9.051-143.57-53.062c-10.57,1.324-21.396,2.021-32.43,2.021c-47.734,0-91.704-12.879-126.807-34.521
		c72.336-0.254,140.629-23.428,192.417-65.336c26.105-21.127,46.697-45.914,61.207-73.675C510.199,289.994,518,258.636,518,226.224
		c0-5.224-0.225-10.418-0.629-15.584C553.656,240.607,576,281.451,576,326.479c0,52.244-30.078,98.86-77.119,129.383
		C498.309,459.608,498,463.44,498,467.343z"/>
</g>
<g>
</g>
<g>
</g>
<g>
</g>
<g>
</g>
<g>
</g>
<g>
</g>
<g>
</g>
<g>
</g>
<g>
</g>
<g>
</g>
<g>
</g>
<g>
</g>
<g>
</g>
<g>
</g>
<g>
</g>
</svg>
