<?xml version="1.0" standalone="no"?>
<!DOCTYPE svg PUBLIC "-//W3C//DTD SVG 20010904//EN"
 "http://www.w3.org/TR/2001/REC-SVG-20010904/DTD/svg10.dtd">
<svg version="1.0" xmlns="http://www.w3.org/2000/svg"
 width="16.000000pt" height="16.000000pt" viewBox="0 0 269.000000 316.000000"
 preserveAspectRatio="xMidYMid meet">

<g transform="translate(0.000000,316.000000) scale(0.100000,-0.100000)"
fill="#000000" stroke="none">
<path d="M1085 3023 c-53 -21 -121 -77 -149 -122 -23 -38 -41 -102 -51 -188
l-7 -53 -245 0 c-279 0 -313 -6 -390 -74 -71 -62 -88 -110 -88 -246 l0 -115
1200 0 1200 0 3 115 c3 95 0 121 -15 150 -33 66 -71 106 -130 135 l-58 30
-260 5 -260 5 -3 30 c-14 168 -66 261 -176 314 l-63 31 -234 -1 c-191 0 -241
-3 -274 -16z m515 -183 c32 -23 48 -63 52 -130 l3 -45 -295 0 -295 0 -3 35
c-5 49 17 107 51 136 28 24 30 24 244 24 199 0 217 -1 243 -20z"/>
<path d="M330 2141 c-13 -8 -14 -27 -8 -123 3 -62 7 -189 7 -283 1 -93 8 -285
16 -425 8 -140 15 -325 15 -410 0 -85 7 -255 15 -377 13 -212 15 -225 42 -274
15 -28 49 -71 76 -94 90 -79 58 -76 887 -73 l735 3 43 23 c60 32 116 92 146
154 22 47 26 76 36 238 6 102 15 334 20 515 6 182 14 420 19 530 13 279 17
578 8 593 -7 9 -222 12 -1025 12 -566 0 -1024 -5 -1032 -9z m577 -223 l23 -21
0 -751 c0 -715 -1 -752 -19 -775 -24 -31 -75 -31 -102 0 -18 21 -19 46 -19
772 l0 751 22 23 c27 29 65 29 95 1z m500 0 l23 -21 0 -751 c-1 -720 -1 -752
-19 -774 -23 -27 -76 -30 -103 -5 -17 15 -18 52 -18 773 0 747 0 756 20 778
26 28 67 28 97 0z m493 0 c20 -22 20 -31 20 -777 0 -843 5 -791 -69 -791 -30
0 -40 5 -54 29 -16 27 -17 88 -17 766 0 729 0 737 21 766 25 36 69 39 99 7z"/>
</g>
</svg>
