<?xml version="1.0" standalone="no"?>
<!DOCTYPE svg PUBLIC "-//W3C//DTD SVG 20010904//EN"
 "http://www.w3.org/TR/2001/REC-SVG-20010904/DTD/svg10.dtd">
<svg version="1.0" xmlns="http://www.w3.org/2000/svg"
 width="32.000000pt" height="32.000000pt" viewBox="0 0 640.000000 640.000000"
 preserveAspectRatio="xMidYMid meet">

<g transform="translate(0.000000,640.000000) scale(0.100000,-0.100000)"
fill="#000000" stroke="none">
<path d="M1909 4989 c-266 -28 -501 -219 -585 -475 l-29 -89 0 -845 0 -845 26
-66 c95 -244 265 -401 497 -459 71 -18 116 -20 589 -20 l512 0 3 -377 c3 -414
4 -421 66 -486 72 -77 196 -96 282 -45 25 15 243 225 485 467 l440 441 108 0
c128 0 224 19 322 65 175 81 303 226 372 420 l28 80 0 835 0 835 -31 88 c-43
119 -86 188 -169 272 -118 119 -260 187 -429 205 -110 12 -2377 11 -2487 -1z
m2485 -473 c66 -20 110 -57 140 -118 l26 -52 0 -755 c0 -712 -2 -758 -19 -796
-10 -22 -31 -53 -47 -68 -57 -57 -75 -62 -269 -67 -155 -5 -186 -9 -225 -27
-32 -15 -124 -100 -320 -297 -151 -152 -278 -276 -282 -276 -5 0 -8 93 -8 208
0 231 -6 257 -71 320 -71 69 -35 66 -760 72 l-655 5 -42 28 c-51 33 -88 87
-101 147 -7 28 -11 307 -11 756 0 772 0 777 56 843 30 36 85 71 128 81 17 5
567 8 1222 9 1000 1 1198 -1 1238 -13z"/>
<path d="M3807 3818 c-62 -13 -122 -61 -151 -120 -79 -159 29 -338 204 -338
175 0 287 187 203 341 -50 93 -153 140 -256 117z"/>
<path d="M2355 3802 c-42 -20 -85 -63 -109 -111 -37 -71 -25 -176 28 -245 36
-48 117 -86 182 -86 229 0 318 290 130 425 -35 26 -51 30 -116 33 -57 2 -85
-2 -115 -16z"/>
<path d="M3053 3799 c-158 -78 -169 -311 -20 -403 56 -35 142 -46 202 -26 50
16 114 75 136 125 24 52 24 138 0 190 -22 49 -80 106 -124 122 -54 19 -146 16
-194 -8z"/>
</g>
</svg>
