<?xml version="1.0" standalone="no"?>
<!DOCTYPE svg PUBLIC "-//W3C//DTD SVG 20010904//EN"
 "http://www.w3.org/TR/2001/REC-SVG-20010904/DTD/svg10.dtd">
<svg version="1.0" xmlns="http://www.w3.org/2000/svg"
 width="16.000000pt" height="16.000000pt" viewBox="0 0 512.000000 512.000000"
 preserveAspectRatio="xMidYMid meet">

<g transform="translate(0.000000,512.000000) scale(0.100000,-0.100000)"
fill="#000000" stroke="none">
<path d="M2325 4788 c-326 -33 -707 -167 -980 -345 -206 -135 -398 -311 -410
-376 -20 -104 54 -197 155 -197 37 0 97 29 125 60 11 13 61 57 110 98 815 682
2024 578 2703 -233 545 -651 602 -1578 139 -2284 -456 -695 -1307 -1021 -2107
-805 -375 101 -719 321 -968 619 -400 478 -546 1112 -393 1707 35 135 57 197
123 343 43 93 49 116 45 153 -15 136 -180 190 -274 90 -55 -59 -173 -362 -217
-558 -112 -505 -57 -1005 163 -1465 105 -219 237 -409 411 -589 189 -196 383
-337 625 -457 778 -383 1712 -278 2390 268 727 586 1013 1558 721 2448 -133
402 -387 769 -721 1038 -459 371 -1048 545 -1640 485z"/>
<path d="M2495 3506 c-37 -17 -70 -52 -84 -89 -7 -18 -11 -150 -11 -362 l0
-334 -349 -3 c-335 -3 -351 -4 -377 -24 -53 -39 -69 -71 -69 -134 0 -63 16
-95 69 -134 26 -20 42 -21 376 -24 l349 -3 3 -349 c3 -334 4 -350 24 -376 39
-53 71 -69 134 -69 63 0 95 16 134 69 20 26 21 42 24 376 l3 349 349 3 c334 3
350 4 376 24 53 39 69 71 69 134 0 63 -16 95 -69 134 -26 20 -42 21 -376 24
l-349 3 -3 349 c-3 334 -4 350 -24 376 -11 15 -32 37 -46 47 -34 25 -113 32
-153 13z"/>
</g>
</svg>
