<svg xmlns="http://www.w3.org/2000/svg" viewBox="0 0 1000 1000">
    <path d="M751.3 308.3c17.6-12.5 34.4-26.4 49.8-41.8 32.3-32.3 54-72.1 60.9-112.1 7.6-43.8-3.6-84.4-30.6-111.5-21.6-21.6-50.8-33-84.6-33-48.1 0-98.7 23.1-138.9 63.3-64.4 64.5-101.9 153.3-122.1 216.7-15-63.7-44.7-149.7-102.7-207.7-31.1-31.1-70.8-47-108.3-47-30.7 0-59.8 10.7-81.6 32.4-48.4 48.4-41.9 133.4 14.6 189.9 20.1 20.1 43.7 36.9 68.5 50.8H66.2v247.9h62V990h743.7V556.2h62V308.3H751.3zm-94.1-185.7c26.8-26.8 60.3-42.9 89.6-42.9 10.4 0 24.9 2.2 35.3 12.6 25.2 25.2 11.1 83.6-30.3 124.9-42.6 42.6-99.8 71.8-149.5 91.1h-49.1c18-55.7 50.4-132.1 104-185.7zm-426.5 31.6c-.7-8.8 0-25.4 11.8-37.3 9.9-9.9 23-12 32.3-12 20.6 0 42.1 9.7 59 26.6 32.8 32.8 59.8 85 78.1 150.9.5 1.8 1 3.6 1.4 5.3-1.8-.5-3.5-1-5.3-1.4-65.9-18.2-118-45.3-150.8-78.1-15.4-15.3-25-35-26.5-54zM438 928H190.1V525.2H438V928zm0-433.8H128.2V370.3H438v123.9zM809.9 928H562V525.2h247.9V928zm61.9-433.8H562V370.3h309.9v123.9z"/>
</svg>