<?xml version="1.0" standalone="no"?>
<!DOCTYPE svg PUBLIC "-//W3C//DTD SVG 20010904//EN"
 "http://www.w3.org/TR/2001/REC-SVG-20010904/DTD/svg10.dtd">
<svg version="1.0" xmlns="http://www.w3.org/2000/svg"
 width="32.000000pt" height="32.000000pt" viewBox="0 0 316.000000 160.000000"
 preserveAspectRatio="xMidYMid meet">

<g transform="translate(0.000000,160.000000) scale(0.100000,-0.100000)"
fill="#000000" stroke="none">
<path d="M1129 1416 c-82 -33 -119 -59 -178 -121 -68 -72 -112 -166 -119 -254
-9 -132 33 -240 156 -404 83 -109 431 -472 464 -483 49 -15 550 263 702 390
170 141 221 346 132 532 -44 93 -128 184 -205 222 -49 24 -68 27 -151 27 -86
0 -101 -3 -161 -31 -37 -18 -84 -48 -106 -67 l-39 -36 -42 63 c-80 122 -190
186 -322 186 -55 0 -90 -6 -131 -24z m186 -107 c91 -25 169 -107 207 -217 20
-60 48 -92 80 -92 11 0 49 32 90 75 87 93 151 127 236 127 39 0 72 -7 98 -20
115 -60 200 -233 174 -357 -26 -127 -195 -262 -567 -452 l-152 -78 -106 105
c-137 135 -285 305 -346 398 -59 90 -83 158 -77 222 11 117 116 243 237 286
45 16 75 17 126 3z"/>
</g>
</svg>
