<?xml version="1.0" standalone="no"?>
<!DOCTYPE svg PUBLIC "-//W3C//DTD SVG 20010904//EN"
 "http://www.w3.org/TR/2001/REC-SVG-20010904/DTD/svg10.dtd">
<svg version="1.0" xmlns="http://www.w3.org/2000/svg"
 width="32.000000pt" height="32.000000pt" viewBox="0 0 400.000000 400.000000"
 preserveAspectRatio="xMidYMid meet">

<g transform="translate(0.000000,400.000000) scale(0.100000,-0.100000)"
fill="#000000" stroke="none">
<path d="M1940 3451 c-30 -4 -98 -17 -150 -29 -52 -11 -130 -23 -173 -26 -86
-6 -244 -44 -342 -81 -127 -47 -278 -161 -419 -313 -27 -29 -81 -77 -120 -107
-155 -118 -238 -213 -302 -351 -56 -120 -66 -153 -99 -319 -28 -141 -36 -318
-16 -368 6 -16 11 -56 11 -90 0 -59 28 -359 50 -532 17 -131 40 -215 87 -315
39 -81 57 -106 126 -174 71 -68 98 -86 206 -138 198 -95 296 -127 531 -174
208 -42 583 -71 762 -60 46 3 169 10 275 16 371 20 587 64 771 158 51 26 105
58 120 72 110 98 163 150 190 185 66 86 169 326 197 460 43 208 22 927 -35
1145 -49 191 -241 481 -390 592 -102 74 -190 124 -247 139 -35 8 -71 28 -105
56 -110 91 -316 192 -478 235 -83 21 -349 33 -450 19z m440 -51 c47 -11 94
-24 105 -30 11 -5 49 -21 85 -36 59 -24 129 -65 89 -51 -9 3 -22 1 -30 -4 -11
-7 -7 -15 21 -39 49 -42 120 -81 133 -73 6 4 7 1 2 -7 -4 -7 -4 -15 1 -19 5
-3 21 -22 35 -41 15 -19 39 -48 54 -65 41 -46 105 -142 125 -189 11 -23 29
-86 41 -141 46 -214 6 -360 -136 -501 -40 -39 -99 -89 -131 -109 -203 -131
-560 -230 -629 -175 -5 4 -44 22 -85 40 -70 30 -85 33 -208 37 -102 3 -144 8
-183 23 -86 34 -127 39 -394 44 l-260 4 -72 77 c-40 42 -88 104 -107 138 -34
61 -70 183 -57 192 11 6 37 -43 55 -105 9 -30 27 -75 39 -100 29 -58 79 -79
194 -79 47 -1 99 -7 120 -16 21 -8 69 -16 107 -19 64 -5 68 -4 49 9 -12 8 -29
12 -39 8 -11 -4 -15 -3 -11 4 4 7 -20 19 -65 33 -119 36 -236 101 -297 165
-65 68 -80 106 -81 204 0 62 5 82 29 130 16 31 36 76 45 101 9 25 29 65 46 90
16 25 30 48 30 52 0 4 14 28 31 53 17 25 29 49 25 52 -3 3 -8 -2 -12 -11 -3
-9 -11 -13 -17 -9 -6 4 -8 0 -4 -11 4 -11 3 -15 -4 -11 -12 8 -31 -12 -118
-123 -35 -45 -67 -80 -71 -77 -13 8 2 59 33 104 93 136 231 257 377 332 55 27
271 101 278 95 2 -2 -21 -15 -51 -29 -127 -58 -278 -177 -323 -253 -49 -84
-64 -155 -59 -288 4 -108 6 -121 24 -131 11 -6 43 -35 70 -66 65 -73 159 -120
330 -166 8 -2 12 -5 10 -8 -12 -11 -171 26 -231 54 -37 17 -74 31 -81 31 -7 0
-40 20 -72 45 -32 25 -60 44 -61 42 -2 -2 3 -25 12 -51 22 -63 80 -105 244
-172 36 -14 77 -35 92 -46 16 -10 33 -16 39 -12 8 5 9 3 5 -5 -5 -8 0 -14 13
-18 12 -3 21 -11 21 -18 0 -14 36 -28 100 -40 19 -4 46 -14 60 -23 78 -51 109
-62 178 -62 57 0 76 4 105 24 47 32 249 106 317 116 87 13 131 27 154 49 37
35 100 89 152 130 85 67 102 100 115 225 12 116 3 196 -32 312 -23 73 -80 138
-114 128 -16 -4 -17 -3 -5 5 12 8 9 12 -15 23 -17 7 -58 30 -92 51 -39 24 -68
35 -79 31 -16 -5 -16 -4 -4 5 11 8 11 11 3 12 -23 3 -28 4 -42 13 -32 20 -155
19 -241 -2 -47 -12 -121 -24 -165 -27 -44 -4 -95 -11 -114 -17 -51 -16 -115
-80 -131 -130 -7 -24 -21 -67 -31 -96 l-19 -52 32 -65 32 -65 46 -1 c25 -1 49
-1 54 0 15 3 121 -30 144 -46 16 -10 36 -13 65 -8 54 8 158 55 150 68 -3 6 -1
7 5 3 15 -9 64 23 55 37 -3 6 -1 7 6 3 20 -13 66 33 67 67 1 51 -12 65 -79 85
-77 23 -119 22 -123 -3 -4 -26 -27 -46 -71 -61 -51 -18 -67 -17 -87 5 -27 30
-12 59 37 72 23 6 57 17 76 25 47 21 217 30 263 15 35 -11 100 -78 128 -130
15 -29 15 -125 -1 -162 -9 -24 -45 -49 -70 -49 -6 0 -31 -14 -56 -31 -35 -24
-42 -34 -32 -41 11 -8 10 -9 -3 -5 -16 6 -76 -10 -178 -45 -30 -11 -90 -22
-135 -25 -75 -5 -86 -3 -152 26 -39 17 -85 31 -101 31 -18 0 -52 16 -88 41
-53 36 -64 40 -107 36 -67 -6 -101 -33 -105 -83 -3 -35 2 -45 42 -87 24 -26
62 -54 83 -62 52 -19 23 -19 -51 0 -100 26 -129 37 -168 63 -32 21 -38 30 -38
61 1 65 59 156 111 173 7 2 1 18 -16 43 -53 78 -20 204 66 254 15 9 30 23 33
31 4 8 9 21 12 28 8 16 -21 15 -75 -4 -84 -29 -120 -73 -167 -205 -46 -130
-80 -142 -71 -24 8 109 36 164 121 237 39 33 84 66 101 73 32 13 117 30 198
40 30 4 45 10 41 17 -4 7 -2 8 5 4 7 -4 57 20 119 57 106 63 186 93 267 100
106 9 313 -3 395 -23z m-600 -30 c-8 -5 -19 -10 -25 -10 -5 0 -3 5 5 10 8 5
20 10 25 10 6 0 3 -5 -5 -10z m-250 -80 c-8 -5 -19 -10 -25 -10 -5 0 -3 5 5
10 8 5 20 10 25 10 6 0 3 -5 -5 -10z m1509 -212 c80 -45 217 -145 234 -171 7
-12 17 -44 20 -70 4 -27 16 -60 26 -73 11 -14 22 -43 26 -66 4 -23 18 -53 31
-67 74 -79 100 -244 49 -301 -23 -25 1 -31 43 -12 31 15 32 18 32 75 0 45 -8
78 -35 140 -19 44 -35 88 -35 96 0 9 -7 24 -15 34 -7 11 -11 25 -8 33 3 8 -2
26 -11 42 -16 26 -16 26 9 -3 31 -37 140 -247 165 -321 25 -72 35 -188 21
-239 -24 -89 -121 -132 -194 -86 -43 26 -87 27 -120 1 -36 -29 -47 -71 -45
-175 1 -77 -2 -95 -21 -127 -44 -73 -108 -93 -229 -72 -107 19 -159 19 -217
-1 -76 -26 -101 -41 -179 -109 -39 -35 -98 -80 -130 -102 -55 -36 -64 -39
-130 -39 -53 0 -85 6 -125 24 -77 33 -132 32 -209 -2 -94 -42 -158 -46 -226
-13 -29 14 -78 49 -106 77 -107 104 -213 118 -321 43 -65 -44 -95 -99 -114
-204 -21 -116 -34 -143 -79 -164 -44 -21 -68 -20 -114 3 -76 39 -102 102 -102
250 0 123 -12 175 -48 213 -40 43 -77 45 -162 9 -78 -33 -119 -37 -202 -20
-90 20 -146 97 -168 234 -18 110 26 449 61 471 5 3 9 12 9 21 0 8 22 62 50
120 43 90 54 106 85 118 19 8 36 15 39 15 2 0 -6 -21 -19 -47 -38 -81 -38
-101 0 -33 21 35 51 78 69 95 40 40 96 79 103 72 3 -3 -1 -39 -7 -79 -16 -94
-7 -239 20 -314 24 -70 71 -143 139 -215 27 -30 48 -56 46 -58 -10 -9 -110 37
-137 64 -31 31 -81 138 -92 198 -4 19 -13 40 -20 46 -33 27 -37 -156 -5 -229
24 -57 45 -72 125 -96 121 -35 195 -88 246 -176 30 -53 73 -70 174 -69 85 1
164 -13 244 -44 59 -23 163 -33 333 -34 134 -1 140 0 256 38 65 22 145 53 177
69 33 16 100 40 149 52 169 42 371 136 464 215 42 36 56 43 67 34 8 -6 14 -14
14 -16 0 -3 -6 -1 -13 5 -10 8 -20 0 -42 -36 -17 -26 -29 -50 -27 -54 1 -5 -4
-8 -12 -8 -8 0 -18 -5 -21 -10 -9 -14 36 -6 66 12 71 40 89 58 144 136 33 46
79 101 102 122 50 43 62 84 63 205 0 44 5 112 10 152 7 56 6 81 -4 111 -20 56
-55 106 -92 131 -17 12 -44 45 -59 74 -16 29 -38 66 -50 82 -48 66 -45 68 34
23z m315 -274 c3 -8 2 -12 -4 -9 -6 3 -10 10 -10 16 0 14 7 11 14 -7z m-915
-261 c-10 -21 -19 -48 -19 -61 0 -33 -36 -99 -65 -118 -24 -16 -30 -15 -107
11 -96 33 -140 35 -202 9 -49 -20 -76 -57 -95 -130 -14 -53 -48 -76 -111 -76
-92 1 -111 15 -213 162 l-53 75 216 1 215 0 138 37 c93 24 164 51 220 80 45
25 85 45 88 46 4 0 -2 -16 -12 -36z m561 -317 c0 -2 -8 -10 -17 -17 -16 -13
-17 -12 -4 4 13 16 21 21 21 13z m615 -217 c3 -41 7 -105 10 -144 3 -38 6
-155 6 -260 1 -249 -19 -367 -88 -535 -89 -218 -225 -373 -433 -497 -50 -30
-248 -88 -363 -107 -195 -33 -563 -54 -857 -51 -404 5 -734 67 -1000 188 -30
14 -72 32 -92 40 -58 24 -157 99 -215 162 -62 66 -129 195 -138 262 -3 27 -10
67 -16 91 -12 56 -59 480 -59 540 l0 46 42 -41 c51 -50 78 -61 167 -69 61 -6
74 -4 140 25 83 37 119 35 147 -7 14 -21 19 -58 25 -172 7 -159 14 -189 62
-238 70 -74 148 -88 224 -42 44 26 63 67 80 173 12 76 20 99 50 140 42 57 97
86 161 87 61 0 107 -23 171 -83 31 -30 83 -66 115 -81 52 -25 68 -28 119 -22
32 3 89 19 127 36 38 16 76 30 84 30 9 0 58 -14 109 -31 142 -47 221 -31 340
68 227 188 271 205 434 167 142 -33 244 0 286 94 17 38 20 64 18 137 -3 149
27 183 125 138 67 -30 113 -28 170 11 21 14 39 24 41 23 1 -2 5 -37 8 -78z"/>
<path d="M2902 2643 c0 -16 -2 -43 -7 -61 -11 -51 -127 -273 -160 -307 -106
-107 -241 -164 -390 -164 -67 0 -94 -5 -168 -33 l-88 -34 89 -28 c108 -35 178
-32 287 9 39 15 92 31 118 36 57 12 120 47 110 62 -3 6 -1 7 6 3 6 -4 24 2 40
14 17 11 46 27 65 35 28 12 42 28 66 77 16 35 30 75 30 91 0 15 7 44 16 65 18
40 21 115 10 205 -8 58 -25 80 -24 30z"/>
<path d="M456 2341 c-34 -68 -58 -171 -39 -171 5 0 10 21 12 46 3 56 16 94 40
114 16 13 38 80 26 80 -2 0 -19 -31 -39 -69z"/>
<path d="M2593 1413 c-28 -11 -12 -31 30 -35 49 -6 66 4 47 27 -12 14 -51 19
-77 8z"/>
<path d="M1400 1352 c-34 -16 -41 -40 -10 -34 8 2 27 6 43 9 33 6 45 22 26 34
-19 12 -19 12 -59 -9z"/>
<path d="M1437 1250 c-72 -28 -152 -94 -176 -145 -60 -127 -20 -274 92 -339
68 -40 149 -57 210 -44 72 15 158 60 195 102 42 49 55 97 50 197 -3 72 -7 90
-32 126 -39 58 -106 98 -187 112 -85 14 -95 14 -152 -9z m49 -156 c35 -53 -23
-115 -80 -85 -56 31 -35 111 29 111 26 0 39 -6 51 -26z m162 -76 c7 -7 12 -24
12 -38 0 -30 -16 -50 -41 -50 -23 0 -49 27 -49 50 0 39 52 64 78 38z m86 -161
c-7 -20 -64 -60 -72 -52 -4 4 -1 10 6 12 7 3 25 16 40 29 32 28 33 28 26 11z
m-358 -55 c-4 -3 -14 2 -24 12 -16 18 -16 18 6 6 13 -6 21 -14 18 -18z m234
-16 c0 -14 -21 -26 -46 -26 -20 0 -17 28 4 33 32 9 42 7 42 -7z m-115 -5 c3
-5 1 -12 -4 -16 -13 -8 -61 5 -61 16 0 12 57 12 65 0z"/>
<path d="M2514 1245 c-63 -31 -130 -97 -155 -150 -25 -53 -24 -140 1 -208 30
-81 86 -125 191 -152 81 -21 130 -14 217 31 105 55 152 123 152 221 -1 124
-39 198 -128 250 -39 23 -60 28 -137 31 -81 3 -95 1 -141 -23z m72 -151 c36
-54 -23 -115 -81 -84 -20 11 -25 21 -25 50 0 45 14 60 57 60 24 0 37 -7 49
-26z m172 -66 c16 -16 15 -53 -2 -67 -8 -7 -27 -11 -43 -9 -51 6 -41 88 11 88
12 0 27 -5 34 -12z m63 -178 c-19 -16 -37 -27 -40 -23 -3 3 0 8 6 10 7 3 23
13 35 23 13 11 25 19 28 19 3 0 -10 -13 -29 -29z m-91 -54 c0 -12 -28 -25 -52
-26 -13 0 -9 28 5 33 24 10 47 7 47 -7z m-115 -17 c4 -6 5 -12 3 -15 -8 -7
-68 8 -68 17 0 13 58 11 65 -2z"/>
<path d="M2153 980 c-11 -55 -75 -86 -124 -60 -10 6 -26 26 -34 45 -15 37 -26
43 -43 22 -15 -18 23 -72 65 -92 68 -33 136 -13 169 50 23 45 21 65 -7 65 -14
0 -21 -9 -26 -30z"/>
</g>
</svg>
