<?xml version="1.0" standalone="no"?>
<!DOCTYPE svg PUBLIC "-//W3C//DTD SVG 20010904//EN"
 "http://www.w3.org/TR/2001/REC-SVG-20010904/DTD/svg10.dtd">
<svg version="1.0" xmlns="http://www.w3.org/2000/svg"
 width="16.000000pt" height="16.000000pt" viewBox="0 0 260.000000 260.000000"
 preserveAspectRatio="xMidYMid meet">

<g transform="translate(0.000000,260.000000) scale(0.100000,-0.100000)"
fill="#000000" stroke="none">
<path d="M494 2579 c-70 -27 -128 -79 -161 -147 l-28 -57 0 -1075 0 -1075 28
-57 c34 -69 91 -121 164 -148 52 -19 77 -20 803 -20 726 0 751 1 803 20 73 27
130 79 164 148 l28 57 3 293 c2 160 0 292 -3 292 -4 0 -49 -37 -101 -82 l-94
-82 0 -189 0 -189 -34 -34 -34 -34 -727 0 c-660 0 -729 2 -755 17 -16 9 -33
27 -39 40 -8 17 -11 333 -11 1049 l0 1026 34 34 34 34 732 0 732 0 34 -34 34
-34 0 -190 0 -189 95 -82 c51 -44 97 -81 100 -81 3 0 5 132 3 293 l-3 292 -28
57 c-34 69 -91 121 -164 148 -52 19 -77 20 -806 19 -721 0 -754 -1 -803 -20z"/>
<path d="M1652 1952 c-42 -7 -52 -48 -52 -207 l0 -145 -310 0 c-337 0 -354 -2
-378 -55 -17 -36 -17 -454 0 -490 24 -53 41 -55 377 -55 l310 0 3 -154 c3
-135 5 -157 22 -175 40 -44 65 -31 234 115 86 75 253 220 370 321 116 101 212
188 212 193 0 11 -729 644 -750 651 -8 3 -25 3 -38 1z"/>
</g>
</svg>
