<?xml version="1.0" standalone="no"?>
<!DOCTYPE svg PUBLIC "-//W3C//DTD SVG 20010904//EN"
 "http://www.w3.org/TR/2001/REC-SVG-20010904/DTD/svg10.dtd">
<svg version="1.0" xmlns="http://www.w3.org/2000/svg"
 width="16.000000pt" height="16.000000pt" viewBox="0 0 225.000000 225.000000"
 preserveAspectRatio="xMidYMid meet">

<g transform="translate(0.000000,225.000000) scale(0.100000,-0.100000)"
fill="#000000" stroke="none">
<path d="M1095 2239 c-595 -80 -1028 -627 -968 -1222 64 -623 616 -1075 1232
-1008 264 28 475 127 666 312 97 94 111 115 100 148 -9 29 -29 32 -133 22
-261 -24 -506 60 -694 237 -414 391 -355 1061 120 1376 68 45 73 51 70 80 -3
26 -9 33 -42 44 -51 16 -262 23 -351 11z"/>
</g>
</svg>
