<?xml version="1.0" standalone="no"?>
<!DOCTYPE svg PUBLIC "-//W3C//DTD SVG 20010904//EN"
 "http://www.w3.org/TR/2001/REC-SVG-20010904/DTD/svg10.dtd">
<svg version="1.0" xmlns="http://www.w3.org/2000/svg"
 width="16.000000pt" height="16.000000pt" viewBox="0 0 323.000000 387.000000"
 preserveAspectRatio="xMidYMid meet">

<g transform="translate(0.000000,387.000000) scale(0.100000,-0.100000)"
fill="#000000" stroke="none">
<path d="M1440 3713 c-31 -6 -104 -29 -127 -42 -10 -5 -49 -24 -88 -41 -199
-91 -258 -125 -296 -169 -22 -24 -42 -56 -46 -70 -3 -14 -10 -31 -15 -38 -5
-6 -12 -36 -15 -65 -4 -41 1 -69 22 -128 14 -41 29 -83 32 -92 4 -14 -15 -27
-93 -63 -55 -26 -121 -57 -149 -70 -27 -13 -88 -42 -135 -64 -146 -68 -200
-143 -200 -277 0 -61 5 -85 30 -137 17 -35 30 -68 30 -73 0 -5 9 -20 19 -33
l19 -24 38 18 c22 10 82 38 134 62 184 87 282 132 425 198 78 36 196 91 340
160 39 18 97 45 130 60 33 15 98 45 145 67 94 45 170 80 275 127 39 18 77 37
85 42 8 5 22 12 30 15 15 6 33 14 175 79 112 52 216 101 311 146 45 22 85 39
89 39 5 0 19 10 31 21 25 24 25 26 -22 127 -55 117 -137 183 -248 198 -62 9
-103 -5 -381 -136 -119 -56 -176 -80 -188 -80 -7 0 -23 23 -37 51 -27 55 -95
139 -113 139 -6 0 -18 6 -26 13 -32 26 -133 48 -181 40z m80 -191 c34 -17 83
-78 95 -119 6 -23 -7 -31 -250 -143 -33 -15 -104 -49 -159 -74 -54 -26 -108
-46 -119 -44 -14 2 -24 14 -30 38 -5 19 -13 39 -18 45 -19 19 -9 70 20 105 29
36 49 47 206 120 50 23 113 52 140 65 59 29 69 29 115 7z"/>
<path d="M605 2320 c-3 -5 -1 -62 4 -127 6 -65 11 -208 11 -318 0 -110 7 -301
15 -425 8 -124 15 -306 15 -405 0 -99 7 -276 15 -393 12 -182 17 -220 36 -260
28 -57 99 -127 159 -155 45 -22 47 -22 810 -22 l765 0 48 23 c71 34 124 87
160 161 l31 66 7 235 c4 129 15 422 24 650 27 714 34 963 29 972 -7 12 -2121
10 -2129 -2z m602 -222 l23 -21 0 -776 0 -775 -22 -23 c-28 -30 -63 -29 -93 3
l-25 27 0 767 0 767 26 27 c32 32 60 33 91 4z m510 -2 l28 -24 0 -770 0 -770
-24 -26 c-30 -32 -71 -34 -97 -5 -18 20 -19 48 -19 801 l0 779 25 19 c33 26
53 25 87 -4z m507 -1 l26 -24 0 -769 c0 -763 0 -770 -21 -796 -25 -32 -68 -35
-95 -5 -18 20 -19 48 -19 801 l0 779 25 19 c33 26 52 25 84 -5z"/>
</g>
</svg>
