<svg xmlns="http://www.w3.org/2000/svg" width="58" height="58" viewBox="0 0 58 59">
    <g fill="none" fill-rule="evenodd">
        <path fill="#BE7F19" d="M-542-34H898V89H-542z"/>
        <path fill="#FFF" d="M29.171.657C44.825.657 57.514 13.347 57.514 29s-12.69 28.343-28.343 28.343S.83 44.653.83 29 13.519.657 29.17.657zm-.966 38.213c-2.07 0-3.772 1.748-3.772 3.818a3.79 3.79 0 0 0 3.772 3.772c2.07 0 3.818-1.702 3.818-3.772s-1.748-3.818-3.818-3.818zm.874-25.53c-5.888 0-9.016 4.048-9.016 4.048-.322.322-.368.874 0 1.196l2.162 2.116c.322.276.644.276 1.012.046.92-.598 2.162-2.392 4.968-2.392 2.3 0 3.68 1.426 3.68 3.082 0 3.22-6.394 4.876-6.394 9.246v1.932c0 .506.414.874.874.874h3.726c.598 0 .92-.414.92-.966v-1.518c0-2.76 6.992-4.37 6.992-9.936 0-4.508-4.094-7.728-8.924-7.728z"/>
    </g>
</svg>
