<?xml version="1.0" standalone="no"?>
<!DOCTYPE svg PUBLIC "-//W3C//DTD SVG 20010904//EN"
 "http://www.w3.org/TR/2001/REC-SVG-20010904/DTD/svg10.dtd">
<svg version="1.0" xmlns="http://www.w3.org/2000/svg"
 width="16.000000pt" height="16.000000pt" viewBox="0 0 225.000000 225.000000"
 preserveAspectRatio="xMidYMid meet">

<g transform="translate(0.000000,225.000000) scale(0.100000,-0.100000)"
fill="#000000" stroke="none">
<path d="M1535 1733 c194 -381 49 -700 -420 -929 -122 -59 -318 -134 -352
-134 -9 0 14 32 54 78 87 96 198 233 214 264 6 13 -92 -80 -219 -205 -127
-126 -232 -231 -234 -235 -3 -6 522 -141 552 -142 52 -1 -206 113 -317 141
-29 7 -53 15 -53 19 0 3 39 19 87 35 107 36 319 139 415 201 171 109 290 231
354 359 83 167 85 305 7 460 -23 44 -118 175 -129 175 -2 0 17 -39 41 -87z"/>
</g>
</svg>
