<?xml version="1.0" standalone="no"?>
<!DOCTYPE svg PUBLIC "-//W3C//DTD SVG 20010904//EN"
 "http://www.w3.org/TR/2001/REC-SVG-20010904/DTD/svg10.dtd">
<svg version="1.0" xmlns="http://www.w3.org/2000/svg"
 width="16.000000pt" height="16.000000pt" viewBox="0 0 512.000000 512.000000"
 preserveAspectRatio="xMidYMid meet">

<g transform="translate(0.000000,512.000000) scale(0.100000,-0.100000)"
fill="#000000" stroke="none">
<path d="M1945 5108 c-236 -24 -488 -96 -713 -203 -1087 -522 -1541 -1837
-1007 -2914 119 -239 240 -404 432 -592 527 -516 1255 -725 1978 -569 228 50
513 169 708 295 l88 58 562 -560 c517 -514 567 -562 624 -587 80 -34 147 -42
224 -26 167 36 293 206 275 373 -3 33 -18 87 -33 121 -24 56 -75 109 -586 623
l-560 562 58 88 c80 123 186 346 233 488 234 707 95 1473 -371 2050 -90 112
-274 288 -387 372 -442 327 -981 476 -1525 421z m525 -727 c529 -114 955 -509
1104 -1024 97 -336 66 -735 -82 -1032 -258 -522 -750 -834 -1315 -835 -333 0
-624 96 -889 295 -635 477 -767 1393 -292 2032 232 312 554 507 954 578 118
21 389 14 520 -14z"/>
</g>
</svg>
