<?xml version="1.0" standalone="no"?>
<!DOCTYPE svg PUBLIC "-//W3C//DTD SVG 20010904//EN"
 "http://www.w3.org/TR/2001/REC-SVG-20010904/DTD/svg10.dtd">
<svg version="1.0" xmlns="http://www.w3.org/2000/svg"
 width="16.000000pt" height="16.000000pt" viewBox="0 0 225.000000 225.000000"
 preserveAspectRatio="xMidYMid meet">

<g transform="translate(0.000000,225.000000) scale(0.100000,-0.100000)"
fill="#000000" stroke="none">
<path d="M1132 2242 c-9 -7 -12 -54 -10 -203 3 -182 4 -194 22 -197 39 -8 46
22 46 201 0 194 -10 229 -58 199z"/>
<path d="M530 2075 c-13 -16 -10 -22 111 -232 35 -62 70 -115 78 -118 17 -7
41 12 41 33 0 18 -168 313 -184 324 -17 12 -32 9 -46 -7z"/>
<path d="M1581 1931 c-50 -87 -91 -165 -91 -174 0 -19 32 -39 46 -29 6 4 45
66 86 137 109 188 111 194 97 211 -28 34 -46 15 -138 -145z"/>
<path d="M141 1666 c-6 -7 -9 -20 -6 -29 9 -21 323 -200 341 -193 24 9 28 36
8 55 -27 25 -300 181 -317 181 -8 0 -20 -6 -26 -14z"/>
<path d="M1920 1595 c-79 -47 -151 -91 -158 -99 -17 -16 -10 -44 12 -52 18 -7
332 172 341 193 7 19 -12 43 -34 42 -9 0 -81 -38 -161 -84z"/>
<path d="M993 1635 c-231 -63 -393 -272 -393 -510 0 -140 53 -268 155 -370
205 -206 534 -206 740 0 288 288 153 777 -242 880 -71 19 -191 18 -260 0z
m320 -92 c76 -36 166 -116 204 -181 150 -255 28 -577 -254 -671 -289 -97 -593
126 -593 434 0 131 47 242 142 332 100 94 181 124 328 120 94 -2 112 -6 173
-34z"/>
<path d="M5 1108 c-14 -41 14 -48 200 -48 181 0 211 7 203 46 -3 18 -15 19
-200 22 -195 2 -197 2 -203 -20z"/>
<path d="M1847 1123 c-14 -13 -7 -43 12 -53 11 -6 91 -10 188 -10 184 0 212 7
199 48 -7 22 -11 22 -200 22 -106 0 -196 -3 -199 -7z"/>
<path d="M320 670 c-124 -72 -155 -94 -155 -111 0 -51 25 -44 190 52 88 50
163 97 167 102 10 16 -10 47 -30 47 -9 0 -87 -41 -172 -90z"/>
<path d="M1731 746 c-6 -7 -9 -20 -6 -27 3 -8 78 -56 168 -107 120 -70 166
-91 177 -84 17 11 23 32 12 48 -11 16 -307 184 -324 184 -9 0 -21 -6 -27 -14z"/>
<path d="M749 483 c-27 -31 -179 -301 -179 -317 0 -25 36 -39 53 -21 8 8 54
83 102 167 67 115 85 156 78 167 -15 23 -37 24 -54 4z"/>
<path d="M1452 488 c-7 -7 -12 -16 -12 -20 0 -13 170 -306 187 -323 17 -18 53
-4 53 21 0 16 -152 285 -178 317 -18 20 -33 22 -50 5z"/>
<path d="M1127 403 c-4 -3 -7 -93 -7 -199 0 -189 0 -193 22 -200 41 -13 48 15
48 199 0 97 -4 177 -10 188 -10 19 -40 26 -53 12z"/>
</g>
</svg>
