<?xml version="1.0" standalone="no"?>
<!DOCTYPE svg PUBLIC "-//W3C//DTD SVG 20010904//EN"
 "http://www.w3.org/TR/2001/REC-SVG-20010904/DTD/svg10.dtd">
<svg version="1.0" xmlns="http://www.w3.org/2000/svg"
 width="16.000000pt" height="16.000000pt" viewBox="0 0 512.000000 512.000000"
 preserveAspectRatio="xMidYMid meet">

<g transform="translate(0.000000,512.000000) scale(0.100000,-0.100000)"
fill="#000000" stroke="none">
<path d="M2415 5114 c-166 -18 -319 -65 -490 -149 -156 -77 -270 -161 -392
-288 -185 -194 -310 -431 -368 -697 -26 -119 -31 -363 -11 -495 82 -531 458
-972 968 -1139 275 -90 592 -91 868 -4 509 161 888 601 975 1133 19 115 19
324 0 440 -50 308 -181 564 -404 786 -209 208 -436 331 -716 390 -88 19 -343
32 -430 23z m370 -542 c339 -93 589 -356 660 -693 20 -92 19 -270 -1 -367 -40
-195 -156 -386 -311 -512 -94 -76 -177 -122 -288 -159 -438 -145 -910 61
-1104 481 -63 137 -76 201 -76 378 0 131 4 167 23 235 95 333 367 583 707 651
96 19 297 12 390 -14z"/>
<path d="M2415 2099 c-709 -42 -1357 -438 -1723 -1052 -172 -288 -273 -631
-284 -964 l-3 -83 257 0 c239 0 258 1 258 18 1 53 22 228 36 297 95 465 426
884 869 1100 577 281 1257 212 1760 -180 109 -85 257 -242 331 -350 173 -255
254 -488 279 -803 l7 -82 257 0 258 0 -4 83 c-16 346 -113 675 -285 964 -420
705 -1181 1102 -2013 1052z"/>
</g>
</svg>
