<svg xmlns="http://www.w3.org/2000/svg" width="63" height="54" viewBox="0 0 63 54">
    <g fill="none" fill-rule="evenodd">
        <path fill="#D0021B" d="M-309-35h1440V88H-309z"/>
        <path fill="#FFF" d="M32.025.128a1 1 0 0 1 .36.36l29.78 51.016a1 1 0 0 1-.864 1.504H1.74a1 1 0 0 1-.863-1.504L30.658.488a1 1 0 0 1 1.367-.36zm-.278 41.564c-1.725 0-3.125 1.409-3.125 3.146 0 1.737 1.4 3.145 3.125 3.145 1.726 0 3.125-1.408 3.125-3.145s-1.399-3.146-3.125-3.146zm.885-29.709h-1.77a2 2 0 0 0-2 2v23.1a2 2 0 0 0 2 2h1.77a2 2 0 0 0 2-2v-23.1a2 2 0 0 0-2-2z"/>
    </g>
</svg>
