<svg xmlns="http://www.w3.org/2000/svg" width="26" height="26" viewBox="0 0 26 26">
    <g fill="none" fill-rule="evenodd">
        <path stroke="#979797" d="M-93.5-21.5h367v70.208h-367z"/>
        <path fill="#000" d="M25.366 22.29a2.297 2.297 0 0 1 0 3.246 2.29 2.29 0 0 1-3.24 0l-6.639-6.633a10.049 10.049 0 0 1-5.338 1.526 10.107 10.107 0 0 1-10.11-10.11C.038 4.731 4.561.207 10.148.207a10.107 10.107 0 0 1 8.584 15.449l6.633 6.632z"/>
        <path fill="#FFF" d="M16.792 10.318a6.646 6.646 0 0 0-6.643-6.643 6.646 6.646 0 0 0-6.644 6.643 6.646 6.646 0 0 0 6.644 6.644 6.646 6.646 0 0 0 6.643-6.644z"/>
    </g>
</svg>
